<svg viewBox="0 0 110 155" fill="none" xmlns="http://www.w3.org/2000/svg" style="background:#ffffff; border-radius:4px; width:100%; height:100%;">
  <!-- Header (Full width dark) -->
  <rect x="0" y="0" width="110" height="35" fill="var(--preview-primary, #2C2D30)" />
  
  <!-- Mini Name Text in Header -->
  <rect x="10" y="10" width="40" height="5" rx="1" fill="#ffffff" />
  <rect x="10" y="18" width="25" height="4" rx="1" fill="var(--preview-accent, #C9A227)" />
  
  <!-- Mini Avatar in Header -->
  <circle cx="85" cy="18" r="11" fill="#ffffff" stroke="var(--preview-accent, #C9A227)" stroke-width="1.5" />
  
  <!-- Left Side: Main Content (White background) -->
  <!-- Section Title -->
  <rect x="10" y="45" width="30" height="4" rx="1" fill="var(--preview-primary, #2C2D30)" />
  <line x1="10" y1="51" x2="60" y2="51" stroke="var(--preview-accent, #C9A227)" stroke-width="1" />
  
  <!-- Content Lines -->
  <rect x="10" y="56" width="50" height="2" rx="0.5" fill="#e2e8f0" />
  <rect x="10" y="61" width="45" height="2" rx="0.5" fill="#e2e8f0" />
  <rect x="10" y="66" width="35" height="2" rx="0.5" fill="#e2e8f0" />
  
  <!-- Section Title 2 -->
  <rect x="10" y="78" width="35" height="4" rx="1" fill="var(--preview-primary, #2C2D30)" />
  <line x1="10" y1="84" x2="60" y2="84" stroke="var(--preview-accent, #C9A227)" stroke-width="1" />
  
  <rect x="10" y="89" width="48" height="2" rx="0.5" fill="#e2e8f0" />
  <rect x="10" y="94" width="48" height="2" rx="0.5" fill="#e2e8f0" />
  <rect x="10" y="99" width="20" height="2" rx="0.5" fill="#e2e8f0" />
  
  <!-- Section Title 3 -->
  <rect x="10" y="111" width="30" height="4" rx="1" fill="var(--preview-primary, #2C2D30)" />
  <line x1="10" y1="117" x2="60" y2="117" stroke="var(--preview-accent, #C9A227)" stroke-width="1" />
  
  <rect x="10" y="122" width="50" height="2" rx="0.5" fill="#e2e8f0" />
  <rect x="10" y="127" width="40" height="2" rx="0.5" fill="#e2e8f0" />

  <!-- Right Side: Sidebar (Dark background) -->
  <rect x="70" y="35" width="40" height="120" fill="var(--preview-primary, #2C2D30)" />
  
  <!-- Sidebar content -->
  <!-- Contact section -->
  <rect x="75" y="45" width="20" height="3" rx="0.5" fill="var(--preview-accent, #C9A227)" />
  <circle cx="78" cy="54" r="2" fill="#ffffff" opacity="0.6" />
  <rect x="83" y="53" width="18" height="2" rx="0.5" fill="#ffffff" opacity="0.6" />
  <circle cx="78" cy="61" r="2" fill="#ffffff" opacity="0.6" />
  <rect x="83" y="60" width="18" height="2" rx="0.5" fill="#ffffff" opacity="0.6" />
  
  <!-- Skills Section -->
  <rect x="75" y="72" width="20" height="3" rx="0.5" fill="var(--preview-accent, #C9A227)" />
  <rect x="75" y="80" width="15" height="2" rx="0.5" fill="#ffffff" opacity="0.6" />
  <rect x="75" y="84" width="18" height="2" rx="0.5" fill="#ffffff" opacity="0.6" />
  <rect x="75" y="88" width="12" height="2" rx="0.5" fill="#ffffff" opacity="0.6" />
  
  <!-- Languages Section -->
  <rect x="75" y="100" width="20" height="3" rx="0.5" fill="var(--preview-accent, #C9A227)" />
  <circle cx="82" cy="112" r="5" stroke="rgba(255,255,255,0.2)" stroke-width="1.5" fill="none" />
  <circle cx="82" cy="112" r="5" stroke="var(--preview-accent, #C9A227)" stroke-width="1.5" stroke-dasharray="31.4" stroke-dashoffset="10" fill="none" />
  
  <circle cx="98" cy="112" r="5" stroke="rgba(255,255,255,0.2)" stroke-width="1.5" fill="none" />
  <circle cx="98" cy="112" r="5" stroke="var(--preview-accent, #C9A227)" stroke-width="1.5" stroke-dasharray="31.4" stroke-dashoffset="5" fill="none" />
</svg>
