<svg viewBox="0 0 110 155" fill="none" xmlns="http://www.w3.org/2000/svg" style="background:#ffffff; border-radius:4px; width:100%; height:100%;">
  <!-- Left column background (Pink) -->
  <rect x="0" y="0" width="62" height="155" fill="var(--preview-rose, #f2b7b4)" />

  <!-- Left Column Content -->
  <!-- Header -->
  <rect x="6" y="10" width="48" height="3" rx="0.5" fill="#ffffff" />
  <line x1="6" y1="16" x2="56" y2="16" stroke="#ffffff" stroke-width="0.75" />
  <rect x="6" y="20" width="50" height="1.5" rx="0.3" fill="#333333" />
  <rect x="6" y="23" width="30" height="1.5" rx="0.3" fill="#333333" />

  <!-- Section: Estudios -->
  <circle cx="8" cy="33" r="1" fill="#ffffff" />
  <rect x="12" y="31.5" width="22" height="2.5" rx="0.5" fill="#ffffff" />
  <line x1="6" y1="37" x2="56" y2="37" stroke="rgba(255, 255, 255, 0.4)" stroke-width="0.75" />
  
  <rect x="6" y="41" width="50" height="2" rx="0.5" fill="#222222" />
  <rect x="6" y="45" width="45" height="1.2" rx="0.3" fill="#333333" />

  <!-- Section: Experiencia -->
  <circle cx="8" cy="55" r="1" fill="#ffffff" />
  <rect x="12" y="53.5" width="32" height="2.5" rx="0.5" fill="#ffffff" />
  <line x1="6" y1="59" x2="56" y2="59" stroke="rgba(255, 255, 255, 0.4)" stroke-width="0.75" />
  
  <rect x="6" y="63" width="50" height="2" rx="0.5" fill="#222222" />
  <rect x="6" y="67" width="48" height="1.2" rx="0.3" fill="#333333" />
  <rect x="6" y="70" width="35" height="1.2" rx="0.3" fill="#333333" />

  <!-- Section: Habilidades -->
  <circle cx="8" cy="79" r="1" fill="#ffffff" />
  <rect x="12" y="77.5" width="28" height="2.5" rx="0.5" fill="#ffffff" />
  <line x1="6" y1="83" x2="56" y2="83" stroke="rgba(255, 255, 255, 0.4)" stroke-width="0.75" />
  
  <!-- Skill rows with dots -->
  <rect x="6" y="87" width="18" height="1.5" rx="0.3" fill="#222222" />
  <circle cx="34" cy="87.7" r="0.7" fill="#222222" /><circle cx="38" cy="87.7" r="0.7" fill="#222222" /><circle cx="42" cy="87.7" r="0.7" fill="#222222" /><circle cx="46" cy="87.7" r="0.7" fill="rgba(255,255,255,0.4)" /><circle cx="50" cy="87.7" r="0.7" fill="rgba(255,255,255,0.4)" />

  <rect x="6" y="92" width="22" height="1.5" rx="0.3" fill="#222222" />
  <circle cx="34" cy="92.7" r="0.7" fill="#222222" /><circle cx="38" cy="92.7" r="0.7" fill="#222222" /><circle cx="42" cy="92.7" r="0.7" fill="#222222" /><circle cx="46" cy="92.7" r="0.7" fill="#222222" /><circle cx="50" cy="92.7" r="0.7" fill="rgba(255,255,255,0.4)" />

  <!-- Section: Personalidad -->
  <circle cx="8" cy="101" r="1" fill="#ffffff" />
  <rect x="12" y="99.5" width="28" height="2.5" rx="0.5" fill="#ffffff" />
  <line x1="6" y1="105" x2="56" y2="105" stroke="rgba(255, 255, 255, 0.4)" stroke-width="0.75" />
  
  <rect x="6" y="109" width="15" height="1.5" rx="0.3" fill="#222222" />
  <circle cx="34" cy="109.7" r="0.7" fill="#222222" /><circle cx="38" cy="109.7" r="0.7" fill="#222222" /><circle cx="42" cy="109.7" r="0.7" fill="#222222" /><circle cx="46" cy="109.7" r="0.7" fill="#222222" /><circle cx="50" cy="109.7" r="0.7" fill="#222222" />

  <!-- Right Column Content -->
  <!-- Top line -->
  <rect x="85" y="0" width="1.5" height="10" fill="var(--preview-primary, #d63a3a)" />
  
  <!-- Photo -->
  <circle cx="85" cy="20" r="8" fill="#ffffff" stroke="var(--preview-primary, #d63a3a)" stroke-width="1.2" />

  <!-- Name -->
  <rect x="68" y="32" width="34" height="3" rx="0.5" fill="var(--preview-primary, #d63a3a)" />
  
  <!-- Contact info -->
  <rect x="68" y="39" width="10" height="1.2" rx="0.3" fill="#718096" />
  <rect x="82" y="39" width="20" height="1.2" rx="0.3" fill="#333333" />
  <rect x="68" y="42" width="10" height="1.2" rx="0.3" fill="#718096" />
  <rect x="80" y="42" width="22" height="1.2" rx="0.3" fill="#333333" />

  <!-- Middle red line -->
  <rect x="85" y="48" width="1.5" height="20" fill="var(--preview-primary, #d63a3a)" />

  <!-- Section: Idiomas -->
  <circle cx="70" cy="74.5" r="1" fill="var(--preview-primary, #d63a3a)" />
  <rect x="73" y="73" width="15" height="2.5" rx="0.5" fill="var(--preview-primary, #d63a3a)" />
  <line x1="68" y1="78.5" x2="102" y2="78.5" stroke="var(--preview-primary, #d63a3a)" stroke-width="0.75" />
  
  <rect x="68" y="82.2" width="32" height="1.5" rx="0.5" fill="#333333" />
  <rect x="68" y="85.5" width="28" height="1.5" rx="0.5" fill="#333333" />

  <!-- Section: Adicional -->
  <circle cx="70" cy="94.5" r="1" fill="var(--preview-primary, #d63a3a)" />
  <rect x="73" y="93" width="18" height="2.5" rx="0.5" fill="var(--preview-primary, #d63a3a)" />
  <line x1="68" y1="98.5" x2="102" y2="98.5" stroke="var(--preview-primary, #d63a3a)" stroke-width="0.75" />
  
  <rect x="68" y="102.2" width="34" height="1.5" rx="0.5" fill="#333333" />
  <rect x="68" y="105.5" width="30" height="1.5" rx="0.5" fill="#333333" />

  <!-- Bottom red line -->
  <rect x="85" y="112" width="1.5" height="43" fill="var(--preview-primary, #d63a3a)" />
</svg>
