<svg viewBox="0 0 160 220" fill="none" xmlns="http://www.w3.org/2000/svg">
  <!-- Papel / Fondo -->
  <rect width="160" height="220" rx="8" fill="#ffffff" stroke="#e2e8f0" stroke-width="2"/>
  
  <!-- Cabecera Oscura -->
  <path d="M1 8C1 4.13401 4.13401 1 8 1H152C155.866 1 159 4.13401 159 8V38H1V8Z" fill="var(--preview-primary, #1b2c47)"/>
  
  <!-- Nombre y Profesión (Líneas Claras en Cabecera) -->
  <rect x="62" y="10" width="85" height="8" rx="1.5" fill="#ffffff" opacity="0.9"/>
  <rect x="87" y="22" width="60" height="4" rx="1" fill="#ffffff" opacity="0.6"/>
  
  <!-- Barra Lateral (Sidebar) -->
  <path d="M1 38H56V212C56 215.866 52.866 219 49 219H8C4.13401 219 1 215.866 1 212V38Z" fill="var(--preview-sidebar-bg, #e5e8ec)"/>
  
  <!-- Foto Redonda Solapada -->
  <circle cx="28" cy="38" r="16" fill="#ffffff" stroke="#ffffff" stroke-width="2"/>
  <!-- Silueta interna en foto -->
  <circle cx="28" cy="35" r="5" fill="#94a3b8" opacity="0.7"/>
  <path d="M19 48C19 43.5 22.5 41 28 41C33.5 41 37 43.5 37 48H19Z" fill="#94a3b8" opacity="0.7"/>
  
  <!-- Contacto en Sidebar (3 líneas de metadatos con iconos ficticios) -->
  <circle cx="10" cy="67" r="2.5" fill="var(--preview-primary, #1b2c47)" opacity="0.6"/>
  <rect x="17" y="65" width="30" height="4" rx="1" fill="var(--preview-primary, #1b2c47)" opacity="0.7"/>
  
  <circle cx="10" cy="76" r="2.5" fill="var(--preview-primary, #1b2c47)" opacity="0.6"/>
  <rect x="17" y="74" width="30" height="4" rx="1" fill="var(--preview-primary, #1b2c47)" opacity="0.7"/>
  
  <circle cx="10" cy="85" r="2.5" fill="var(--preview-primary, #1b2c47)" opacity="0.6"/>
  <rect x="17" y="83" width="30" height="4" rx="1" fill="var(--preview-primary, #1b2c47)" opacity="0.7"/>
  
  <!-- Sección Información (Personality) -->
  <rect x="8" y="98" width="40" height="5" rx="1" fill="#ffffff"/>
  <!-- Viñetas de información -->
  <circle cx="11" cy="112" r="1.5" fill="var(--preview-primary, #1b2c47)"/>
  <rect x="17" y="110" width="30" height="3" rx="0.5" fill="var(--preview-primary, #1b2c47)" opacity="0.8"/>
  
  <circle cx="11" cy="120" r="1.5" fill="var(--preview-primary, #1b2c47)"/>
  <rect x="17" y="118" width="30" height="3" rx="0.5" fill="var(--preview-primary, #1b2c47)" opacity="0.8"/>
  
  <circle cx="11" cy="128" r="1.5" fill="var(--preview-primary, #1b2c47)"/>
  <rect x="17" y="126" width="30" height="3" rx="0.5" fill="var(--preview-primary, #1b2c47)" opacity="0.8"/>
  
  <!-- Sección Idiomas -->
  <rect x="8" y="141" width="40" height="5" rx="1" fill="#ffffff"/>
  <!-- Items Idiomas (Nombre + Nivel) -->
  <rect x="8" y="154" width="18" height="3" rx="0.5" fill="var(--preview-primary, #1b2c47)"/>
  <rect x="34" y="154" width="14" height="3" rx="0.5" fill="var(--preview-primary, #1b2c47)" opacity="0.6"/>
  
  <rect x="8" y="162" width="18" height="3" rx="0.5" fill="var(--preview-primary, #1b2c47)"/>
  <rect x="34" y="162" width="14" height="3" rx="0.5" fill="var(--preview-primary, #1b2c47)" opacity="0.6"/>

  <!-- Columna Derecha (Contenido Principal) -->
  <!-- Perfil Profesional -->
  <rect x="64" y="47" width="55" height="4" rx="1" fill="var(--preview-primary, #1b2c47)"/>
  <rect x="64" y="56" width="85" height="2.5" rx="0.5" fill="#64748b"/>
  <rect x="64" y="61" width="85" height="2.5" rx="0.5" fill="#64748b"/>
  <rect x="64" y="66" width="60" height="2.5" rx="0.5" fill="#64748b"/>
  
  <!-- Experiencia -->
  <rect x="64" y="78" width="45" height="4" rx="1" fill="var(--preview-primary, #1b2c47)"/>
  
  <!-- Item Experiencia 1 -->
  <circle cx="67" cy="91" r="1.5" fill="var(--preview-accent, #1b2c47)"/>
  <rect x="73" y="89" width="50" height="3" rx="0.5" fill="var(--preview-primary, #1b2c47)"/>
  <rect x="73" y="94" width="60" height="2" rx="0.5" fill="#64748b" opacity="0.8"/>
  <rect x="73" y="98" width="75" height="2" rx="0.5" fill="#94a3b8" opacity="0.6"/>
  <rect x="73" y="102" width="50" height="2" rx="0.5" fill="#94a3b8" opacity="0.6"/>

  <!-- Item Experiencia 2 -->
  <circle cx="67" cy="112" r="1.5" fill="var(--preview-accent, #1b2c47)"/>
  <rect x="73" y="110" width="50" height="3" rx="0.5" fill="var(--preview-primary, #1b2c47)"/>
  <rect x="73" y="115" width="60" height="2" rx="0.5" fill="#64748b" opacity="0.8"/>
  <rect x="73" y="119" width="75" height="2" rx="0.5" fill="#94a3b8" opacity="0.6"/>
  
  <!-- Formación -->
  <rect x="64" y="131" width="45" height="4" rx="1" fill="var(--preview-primary, #1b2c47)"/>
  <!-- Item Formación -->
  <rect x="64" y="142" width="60" height="3" rx="0.5" fill="var(--preview-primary, #1b2c47)"/>
  <rect x="64" y="147" width="50" height="2" rx="0.5" fill="#64748b" opacity="0.8"/>
  <rect x="64" y="151" width="70" height="2" rx="0.5" fill="#94a3b8" opacity="0.6"/>

  <!-- Herramientas (Skills) -->
  <rect x="64" y="163" width="55" height="4" rx="1" fill="var(--preview-primary, #1b2c47)"/>
  
  <!-- Skill 1 (Nombre + Barra) -->
  <rect x="64" y="174" width="30" height="3" rx="0.5" fill="var(--preview-primary, #1b2c47)"/>
  <rect x="100" y="174" width="48" height="3" rx="0.5" fill="var(--preview-sidebar-bg, #e5e8ec)"/>
  <rect x="100" y="174" width="40" height="3" rx="0.5" fill="var(--preview-accent, #1b2c47)"/>
  
  <!-- Skill 2 -->
  <rect x="64" y="181" width="30" height="3" rx="0.5" fill="var(--preview-primary, #1b2c47)"/>
  <rect x="100" y="181" width="48" height="3" rx="0.5" fill="var(--preview-sidebar-bg, #e5e8ec)"/>
  <rect x="100" y="181" width="32" height="3" rx="0.5" fill="var(--preview-accent, #1b2c47)"/>

  <!-- Skill 3 -->
  <rect x="64" y="188" width="30" height="3" rx="0.5" fill="var(--preview-primary, #1b2c47)"/>
  <rect x="100" y="188" width="48" height="3" rx="0.5" fill="var(--preview-sidebar-bg, #e5e8ec)"/>
  <rect x="100" y="188" width="20" height="3" rx="0.5" fill="var(--preview-accent, #1b2c47)"/>
</svg>
