<svg viewBox="0 0 110 155" fill="none" xmlns="http://www.w3.org/2000/svg" style="background:#ffffff; border-radius:4px; width:100%; height:100%;">
  <!-- Page Background (Dynamic Warm Grey/Beige) -->
  <rect x="0" y="0" width="110" height="155" fill="var(--preview-primary, #EAEAE6)" />

  <!-- Header Section -->
  <!-- Centered Name flanked by horizontal lines -->
  <line x1="8" y1="12" x2="35" y2="12" stroke="var(--preview-accent, #222222)" stroke-width="0.6" opacity="0.7" />
  <rect x="40" y="9" width="30" height="6" rx="0.5" fill="var(--preview-accent, #222222)" />
  <line x1="75" y1="12" x2="102" y2="12" stroke="var(--preview-accent, #222222)" stroke-width="0.6" opacity="0.7" />

  <!-- Profession Subtitle -->
  <rect x="47" y="19" width="16" height="3" rx="0.3" fill="var(--preview-accent, #222222)" opacity="0.8" />

  <!-- Contact row (dots + text lines representation) -->
  <circle cx="28" cy="27" r="1" fill="var(--preview-accent, #222222)" opacity="0.6" />
  <rect x="32" y="26.3" width="10" height="1.2" rx="0.2" fill="var(--preview-accent, #222222)" opacity="0.6" />
  
  <circle cx="46" cy="27" r="1" fill="var(--preview-accent, #222222)" opacity="0.6" />
  <rect x="50" y="26.3" width="10" height="1.2" rx="0.2" fill="var(--preview-accent, #222222)" opacity="0.6" />
  
  <circle cx="64" cy="27" r="1" fill="var(--preview-accent, #222222)" opacity="0.6" />
  <rect x="68" y="26.3" width="10" height="1.2" rx="0.2" fill="var(--preview-accent, #222222)" opacity="0.6" />

  <!-- Header Divider Line -->
  <line x1="8" y1="33" x2="102" y2="33" stroke="var(--preview-accent, #222222)" stroke-width="0.6" opacity="0.7" />

  <!-- Middle Layout Section (Two columns) -->
  <!-- Middle Vertical Divider Line -->
  <line x1="60" y1="38" x2="60" y2="108" stroke="var(--preview-accent, #222222)" stroke-width="0.6" opacity="0.7" />

  <!-- Left Column (Profile & Experience) -->
  <!-- PROFILE SUMMARY -->
  <rect x="8" y="38" width="22" height="3.5" rx="0.5" fill="var(--preview-accent, #222222)" />
  <rect x="8" y="44" width="48" height="1.2" rx="0.2" fill="var(--preview-accent, #222222)" opacity="0.5" />
  <rect x="8" y="47.2" width="48" height="1.2" rx="0.2" fill="var(--preview-accent, #222222)" opacity="0.5" />
  <rect x="8" y="50.4" width="38" height="1.2" rx="0.2" fill="var(--preview-accent, #222222)" opacity="0.5" />

  <!-- EXPERIENCE -->
  <rect x="8" y="58" width="22" height="3.5" rx="0.5" fill="var(--preview-accent, #222222)" />
  
  <!-- Exp Item 1 -->
  <rect x="8" y="64" width="36" height="2" rx="0.3" fill="var(--preview-accent, #222222)" />
  <rect x="8" y="67.5" width="18" height="1.2" rx="0.2" fill="var(--preview-accent, #222222)" opacity="0.7" />
  <rect x="8" y="70.5" width="24" height="1" rx="0.2" fill="var(--preview-accent, #222222)" opacity="0.5" />
  <circle cx="11" cy="75" r="0.6" fill="var(--preview-accent, #222222)" opacity="0.7" />
  <rect x="15" y="74.5" width="38" height="1" rx="0.2" fill="var(--preview-accent, #222222)" opacity="0.5" />
  <circle cx="11" cy="78" r="0.6" fill="var(--preview-accent, #222222)" opacity="0.7" />
  <rect x="15" y="77.5" width="34" height="1" rx="0.2" fill="var(--preview-accent, #222222)" opacity="0.5" />

  <!-- Exp Item 2 -->
  <rect x="8" y="84" width="30" height="2" rx="0.3" fill="var(--preview-accent, #222222)" />
  <rect x="8" y="87.5" width="18" height="1.2" rx="0.2" fill="var(--preview-accent, #222222)" opacity="0.7" />
  <rect x="8" y="90.5" width="24" height="1" rx="0.2" fill="var(--preview-accent, #222222)" opacity="0.5" />
  <circle cx="11" cy="95" r="0.6" fill="var(--preview-accent, #222222)" opacity="0.7" />
  <rect x="15" y="94.5" width="36" height="1" rx="0.2" fill="var(--preview-accent, #222222)" opacity="0.5" />

  <!-- Right Column (Education & Skills) -->
  <!-- EDUCATION -->
  <rect x="64" y="38" width="22" height="3.5" rx="0.5" fill="var(--preview-accent, #222222)" />
  <!-- Edu Item 1 -->
  <rect x="64" y="44" width="36" height="2" rx="0.3" fill="var(--preview-accent, #222222)" />
  <rect x="64" y="47.5" width="20" height="1.2" rx="0.2" fill="var(--preview-accent, #222222)" opacity="0.7" />
  <rect x="64" y="50.5" width="38" height="1.2" rx="0.2" fill="var(--preview-accent, #222222)" opacity="0.5" />
  <!-- Edu Item 2 -->
  <rect x="64" y="56" width="32" height="2" rx="0.3" fill="var(--preview-accent, #222222)" />
  <rect x="64" y="59.5" width="20" height="1.2" rx="0.2" fill="var(--preview-accent, #222222)" opacity="0.7" />
  <rect x="64" y="62.5" width="38" height="1.2" rx="0.2" fill="var(--preview-accent, #222222)" opacity="0.5" />

  <!-- SKILLS -->
  <rect x="64" y="72" width="22" height="3.5" rx="0.5" fill="var(--preview-accent, #222222)" />
  <circle cx="67" cy="80" r="0.6" fill="var(--preview-accent, #222222)" opacity="0.7" />
  <rect x="71" y="79.5" width="28" height="1" rx="0.2" fill="var(--preview-accent, #222222)" opacity="0.6" />
  <circle cx="67" cy="83.5" r="0.6" fill="var(--preview-accent, #222222)" opacity="0.7" />
  <rect x="71" y="83" width="24" height="1" rx="0.2" fill="var(--preview-accent, #222222)" opacity="0.6" />
  <circle cx="67" cy="87" r="0.6" fill="var(--preview-accent, #222222)" opacity="0.7" />
  <rect x="71" y="86.5" width="26" height="1" rx="0.2" fill="var(--preview-accent, #222222)" opacity="0.6" />
  <circle cx="67" cy="90.5" r="0.6" fill="var(--preview-accent, #222222)" opacity="0.7" />
  <rect x="71" y="90" width="22" height="1" rx="0.2" fill="var(--preview-accent, #222222)" opacity="0.6" />

  <!-- Bottom Divider Line -->
  <line x1="8" y1="108" x2="102" y2="108" stroke="var(--preview-accent, #222222)" stroke-width="0.6" opacity="0.7" />

  <!-- Bottom Layout Section -->
  <!-- Bottom Vertical Divider Line (Shifted right) -->
  <line x1="72" y1="113" x2="72" y2="150" stroke="var(--preview-accent, #222222)" stroke-width="0.6" opacity="0.7" />

  <!-- Bottom Left Sub-Columns (Personality & Interests) -->
  <!-- PERSONALITY -->
  <rect x="8" y="113" width="18" height="3" rx="0.3" fill="var(--preview-accent, #222222)" />
  <circle cx="11" cy="120" r="0.6" fill="var(--preview-accent, #222222)" opacity="0.7" />
  <rect x="14" y="119.5" width="20" height="1" rx="0.1" fill="var(--preview-accent, #222222)" opacity="0.6" />
  <circle cx="11" cy="123" r="0.6" fill="var(--preview-accent, #222222)" opacity="0.7" />
  <rect x="14" y="122.5" width="18" height="1" rx="0.1" fill="var(--preview-accent, #222222)" opacity="0.6" />
  <circle cx="11" cy="126" r="0.6" fill="var(--preview-accent, #222222)" opacity="0.7" />
  <rect x="14" y="125.5" width="16" height="1" rx="0.1" fill="var(--preview-accent, #222222)" opacity="0.6" />

  <!-- INTERESTS -->
  <rect x="40" y="113" width="18" height="3" rx="0.3" fill="var(--preview-accent, #222222)" />
  <circle cx="43" cy="120" r="0.6" fill="var(--preview-accent, #222222)" opacity="0.7" />
  <rect x="46" y="119.5" width="20" height="1" rx="0.1" fill="var(--preview-accent, #222222)" opacity="0.6" />
  <circle cx="43" cy="123" r="0.6" fill="var(--preview-accent, #222222)" opacity="0.7" />
  <rect x="46" y="122.5" width="18" height="1" rx="0.1" fill="var(--preview-accent, #222222)" opacity="0.6" />

  <!-- Bottom Right Sub-Column (LANGUAGES) -->
  <rect x="76" y="113" width="18" height="3" rx="0.3" fill="var(--preview-accent, #222222)" />
  <circle cx="79" cy="120" r="0.6" fill="var(--preview-accent, #222222)" opacity="0.7" />
  <rect x="82" y="119.5" width="18" height="1" rx="0.1" fill="var(--preview-accent, #222222)" opacity="0.6" />
  <circle cx="79" cy="123" r="0.6" fill="var(--preview-accent, #222222)" opacity="0.7" />
  <rect x="82" y="122.5" width="16" height="1" rx="0.1" fill="var(--preview-accent, #222222)" opacity="0.6" />
</svg>
